# xmcd
#
# Track frame offsets:
#	150
#	29305
#	44330
#	60365
#	71985
#	84525
#	96920
#	114722
#	128930
#	145275
#	163846
#	175954
#	195600
#	210009
#
# Disc length: 3238
#
# Revision: 1
# Processed by: cddbd v1.5.1PL0 Copyright (c) Steve Scherf et al.
# Submitted via: EasyCDDAExtractor 4.6.9.1
# Normalized: r0:TRMNUM
#
DISCID=c80ca40e
DTITLE=Wilco - Being There Disc 1 and Bonus Tracks
DYEAR=1996
DGENRE=Country
TTITLE0=Misunderstood
TTITLE1=Far, Far Away
TTITLE2=Monday
TTITLE3=Outtasite (Outta Mind)
TTITLE4=Forget the Flowers
TTITLE5=Red-Eyed and Blue
TTITLE6=I Got You (At the End of the Century)
TTITLE7=What's the World Got in Store
TTITLE8=Hotel Arizona
TTITLE9=Say You Miss Me
TTITLE10=Red Eyed and Blue (Live at C'est What, Toronto 1997)
TTITLE11=Box Full Of Letters (Live at C'est What, Toronto 1997)
TTITLE12=Forget The Flowers (Live at C'est What, Toronto 1997)
TTITLE13=Sunken Treasure (Live at C'est What, Toronto 1997)
EXTD=
EXTT0=
EXTT1=
EXTT2=
EXTT3=
EXTT4=
EXTT5=
EXTT6=
EXTT7=
EXTT8=
EXTT9=
EXTT10=
EXTT11=
EXTT12=
EXTT13=
PLAYORDER=
